<?xml version="1.0" encoding="utf-8"?>
<!-- Generator: Adobe Illustrator 20.1.0, SVG Export Plug-In . SVG Version: 6.00 Build 0)  -->
<svg version="1.1" id="图层_1" xmlns="http://www.w3.org/2000/svg" xmlns:xlink="http://www.w3.org/1999/xlink" x="0px" y="0px"
	 viewBox="0 0 242.7 64" style="enable-background:new 0 0 242.7 64;" xml:space="preserve">
<style type="text/css">
	.st0{fill:#00A0E3;}
</style>
<g id="XMLID_1_">
	<polygon id="XMLID_12_" class="st0" points="12.3,12 17.8,12 17.8,46.7 35.4,46.7 35.4,51.6 12.3,51.6 	"/>
	<rect id="XMLID_11_" x="40.2" y="12" class="st0" width="5.5" height="39.6"/>
	<path id="XMLID_10_" class="st0" d="M54.8,12h5.4l17.5,25.7c1.4,2.2,3.3,5.7,3.3,5.7h0.2c0,0-0.4-3.5-0.4-5.7V12h5.5v39.6H81
		L63.4,25.9c-1.4-2.2-3.3-5.8-3.3-5.8H60c0,0,0.4,3.5,0.4,5.8v25.7h-5.5C54.8,51.6,54.8,12,54.8,12z"/>
	<polygon id="XMLID_9_" class="st0" points="95.5,12 101,12 101,28.7 106.9,28.7 116.9,12 123,12 111.6,30.8 111.6,30.9 123.7,51.6 
		117.5,51.6 106.9,33.4 101,33.4 101,51.6 95.5,51.6 	"/>
	<polygon id="XMLID_8_" class="st0" points="128,12.2 130.3,12.2 130.3,30.6 155.2,30.6 155.2,12.2 157.7,12.2 157.7,51.4 
		155.2,51.4 155.2,32.8 130.3,32.8 130.3,51.4 128,51.4 	"/>
	<path id="XMLID_7_" class="st0" d="M167.2,12.2h2.5v25.7c0,7.4,4.8,11.9,12.2,11.9c7.4,0,12.3-4.5,12.3-12V12.2h2.5v25.7
		c0,8.6-6.1,14.1-14.6,14.1c-8.6,0-14.7-5.5-14.7-14.1V12.2z"/>
	<path id="XMLID_3_" class="st0" d="M219.6,49.1c5.3,0,8.6-3.2,8.6-8.6s-3.7-8.7-8.7-8.7h-11.1v17.3H219.6z M219.2,29.7
		c4.4,0,7.5-3,7.5-7.6c0-4.6-3-7.5-7.5-7.5h-10.6v15.3L219.2,29.7L219.2,29.7z M206,12.2h13.2c5.7,0,9.9,3.8,9.9,9.8
		c0,4.2-2.1,7.1-5.1,8.6v0.1c3.9,1.1,6.7,4.9,6.7,9.9c0,6.5-4.6,10.8-10.9,10.8h-13.7L206,12.2L206,12.2z"/>
</g>
</svg>
